<mxfile host="app.diagrams.net" modified="2022-08-29T04:09:08.691Z" agent="5.0 (Windows NT 10.0; Win64; x64) AppleWebKit/537.36 (KHTML, like Gecko) Chrome/104.0.5112.102 Safari/537.36 Edg/104.0.1293.70" etag="ZRwPkdjT3fw3-PTTqAUY" version="20.2.7" type="github">
  <diagram id="gJglTT8E4WTCVQhx8afm" name="Page-1">
    <mxGraphModel dx="918" dy="505" grid="0" gridSize="10" guides="1" tooltips="1" connect="1" arrows="1" fold="1" page="1" pageScale="1" pageWidth="850" pageHeight="1100" math="0" shadow="0">
      <root>
        <mxCell id="0" />
        <mxCell id="1" parent="0" />
        <mxCell id="0rOF9EZ3HCnSU4P0p_L--8" value="" style="rounded=0;whiteSpace=wrap;html=1;" vertex="1" parent="1">
          <mxGeometry x="79" y="697.28" width="276" height="249" as="geometry" />
        </mxCell>
        <mxCell id="0rOF9EZ3HCnSU4P0p_L--9" value="&lt;b&gt;Data Center Palmerah&lt;/b&gt;" style="text;html=1;resizable=0;autosize=1;align=center;verticalAlign=middle;points=[];fillColor=none;strokeColor=none;rounded=0;" vertex="1" parent="1">
          <mxGeometry x="77" y="700" width="143" height="26" as="geometry" />
        </mxCell>
        <mxCell id="0rOF9EZ3HCnSU4P0p_L--10" value="" style="rounded=0;whiteSpace=wrap;html=1;" vertex="1" parent="1">
          <mxGeometry x="492" y="697.28" width="276" height="300.72" as="geometry" />
        </mxCell>
        <mxCell id="0rOF9EZ3HCnSU4P0p_L--13" value="&lt;b&gt;DCI Cibitung&lt;/b&gt;" style="text;html=1;resizable=0;autosize=1;align=center;verticalAlign=middle;points=[];fillColor=none;strokeColor=none;rounded=0;" vertex="1" parent="1">
          <mxGeometry x="490" y="699.28" width="91" height="26" as="geometry" />
        </mxCell>
        <mxCell id="0rOF9EZ3HCnSU4P0p_L--15" value="" style="pointerEvents=1;shadow=0;dashed=0;html=1;strokeColor=none;fillColor=#EF8F21;labelPosition=center;verticalLabelPosition=bottom;verticalAlign=top;align=center;outlineConnect=0;shape=mxgraph.veeam.dr_site;" vertex="1" parent="1">
          <mxGeometry x="716" y="702" width="44.8" height="44.8" as="geometry" />
        </mxCell>
        <mxCell id="0rOF9EZ3HCnSU4P0p_L--16" value="" style="pointerEvents=1;shadow=0;dashed=0;html=1;strokeColor=none;fillColor=#EF8F21;labelPosition=center;verticalLabelPosition=bottom;verticalAlign=top;align=center;outlineConnect=0;shape=mxgraph.veeam.production_site;" vertex="1" parent="1">
          <mxGeometry x="305" y="703" width="44.8" height="44.8" as="geometry" />
        </mxCell>
        <mxCell id="0rOF9EZ3HCnSU4P0p_L--21" value="fiber optic" style="text;html=1;resizable=0;autosize=1;align=center;verticalAlign=middle;points=[];fillColor=none;strokeColor=none;rounded=0;" vertex="1" parent="1">
          <mxGeometry x="380" y="820" width="70" height="26" as="geometry" />
        </mxCell>
        <mxCell id="0rOF9EZ3HCnSU4P0p_L--22" value="" style="shape=link;html=1;rounded=0;" edge="1" parent="1">
          <mxGeometry width="100" relative="1" as="geometry">
            <mxPoint x="355" y="821.3871532846714" as="sourcePoint" />
            <mxPoint x="491" y="821" as="targetPoint" />
          </mxGeometry>
        </mxCell>
        <mxCell id="0rOF9EZ3HCnSU4P0p_L--23" value="" style="sketch=0;pointerEvents=1;shadow=0;dashed=0;html=1;strokeColor=none;fillColor=#005F4B;labelPosition=center;verticalLabelPosition=bottom;verticalAlign=top;align=center;outlineConnect=0;shape=mxgraph.veeam2.encryption_key;" vertex="1" parent="1">
          <mxGeometry x="409" y="764" width="36" height="36" as="geometry" />
        </mxCell>
        <mxCell id="0rOF9EZ3HCnSU4P0p_L--24" value="" style="sketch=0;points=[[0.5,0,0],[1,0.5,0],[0.5,1,0],[0,0.5,0],[0.145,0.145,0],[0.8555,0.145,0],[0.855,0.8555,0],[0.145,0.855,0]];verticalLabelPosition=bottom;html=1;verticalAlign=top;aspect=fixed;align=center;pointerEvents=1;shape=mxgraph.cisco19.rect;prIcon=router;fillColor=#FAFAFA;strokeColor=#005073;" vertex="1" parent="1">
          <mxGeometry x="274" y="815" width="43" height="43" as="geometry" />
        </mxCell>
        <mxCell id="0rOF9EZ3HCnSU4P0p_L--27" value="" style="endArrow=none;dashed=1;html=1;rounded=0;exitX=0.5;exitY=0;exitDx=0;exitDy=0;exitPerimeter=0;" edge="1" parent="1" source="0rOF9EZ3HCnSU4P0p_L--24">
          <mxGeometry width="50" height="50" relative="1" as="geometry">
            <mxPoint x="359" y="828" as="sourcePoint" />
            <mxPoint x="409" y="778" as="targetPoint" />
            <Array as="points">
              <mxPoint x="296" y="778" />
            </Array>
          </mxGeometry>
        </mxCell>
        <mxCell id="0rOF9EZ3HCnSU4P0p_L--28" value="" style="endArrow=none;dashed=1;html=1;rounded=0;exitX=0.5;exitY=0;exitDx=0;exitDy=0;exitPerimeter=0;" edge="1" parent="1" source="0rOF9EZ3HCnSU4P0p_L--26">
          <mxGeometry width="50" height="50" relative="1" as="geometry">
            <mxPoint x="305.5" y="806" as="sourcePoint" />
            <mxPoint x="448" y="777" as="targetPoint" />
            <Array as="points">
              <mxPoint x="608" y="777" />
            </Array>
          </mxGeometry>
        </mxCell>
        <mxCell id="0rOF9EZ3HCnSU4P0p_L--33" value="&lt;font style=&quot;font-size: 10px;&quot;&gt;Production Site&lt;/font&gt;" style="text;html=1;resizable=0;autosize=1;align=center;verticalAlign=middle;points=[];fillColor=none;strokeColor=none;rounded=0;" vertex="1" parent="1">
          <mxGeometry x="274" y="742" width="86" height="26" as="geometry" />
        </mxCell>
        <mxCell id="0rOF9EZ3HCnSU4P0p_L--34" value="&lt;font style=&quot;font-size: 10px;&quot;&gt;DR Site&lt;/font&gt;" style="text;html=1;resizable=0;autosize=1;align=center;verticalAlign=middle;points=[];fillColor=none;strokeColor=none;rounded=0;" vertex="1" parent="1">
          <mxGeometry x="713.4" y="740" width="52" height="26" as="geometry" />
        </mxCell>
        <mxCell id="0rOF9EZ3HCnSU4P0p_L--36" value="" style="rounded=1;whiteSpace=wrap;html=1;fontSize=10;fillColor=#02913B;" vertex="1" parent="1">
          <mxGeometry x="130" y="761" width="120" height="156" as="geometry" />
        </mxCell>
        <mxCell id="0rOF9EZ3HCnSU4P0p_L--5" value="" style="points=[];aspect=fixed;html=1;align=center;shadow=0;dashed=0;image;image=img/lib/allied_telesis/computer_and_terminals/Server_Desktop.svg;" vertex="1" parent="1">
          <mxGeometry x="164" y="803" width="59.6" height="75.55" as="geometry" />
        </mxCell>
        <mxCell id="0rOF9EZ3HCnSU4P0p_L--30" value="" style="endArrow=none;html=1;rounded=0;entryX=0;entryY=0.5;entryDx=0;entryDy=0;entryPerimeter=0;exitX=0.983;exitY=0.452;exitDx=0;exitDy=0;exitPerimeter=0;" edge="1" parent="1" source="0rOF9EZ3HCnSU4P0p_L--5" target="0rOF9EZ3HCnSU4P0p_L--24">
          <mxGeometry width="50" height="50" relative="1" as="geometry">
            <mxPoint x="404" y="854" as="sourcePoint" />
            <mxPoint x="454" y="804" as="targetPoint" />
          </mxGeometry>
        </mxCell>
        <mxCell id="0rOF9EZ3HCnSU4P0p_L--7" value="DPIS DB Server" style="text;html=1;resizable=0;autosize=1;align=center;verticalAlign=middle;points=[];fillColor=none;strokeColor=none;rounded=0;" vertex="1" parent="1">
          <mxGeometry x="141.3" y="881" width="105" height="26" as="geometry" />
        </mxCell>
        <mxCell id="0rOF9EZ3HCnSU4P0p_L--37" value="&lt;font style=&quot;font-size: 10px;&quot;&gt;Veeam Replication&lt;/font&gt;" style="text;html=1;resizable=0;autosize=1;align=center;verticalAlign=middle;points=[];fillColor=none;strokeColor=none;rounded=0;" vertex="1" parent="1">
          <mxGeometry x="129" y="758" width="101" height="26" as="geometry" />
        </mxCell>
        <mxCell id="0rOF9EZ3HCnSU4P0p_L--38" value="" style="rounded=1;whiteSpace=wrap;html=1;fontSize=10;fillColor=#02913B;" vertex="1" parent="1">
          <mxGeometry x="522" y="842" width="233" height="142" as="geometry" />
        </mxCell>
        <mxCell id="0rOF9EZ3HCnSU4P0p_L--39" value="&lt;font style=&quot;font-size: 10px;&quot;&gt;Veeam Replication&lt;/font&gt;" style="text;html=1;resizable=0;autosize=1;align=center;verticalAlign=middle;points=[];fillColor=none;strokeColor=none;rounded=0;" vertex="1" parent="1">
          <mxGeometry x="522" y="838.14" width="101" height="26" as="geometry" />
        </mxCell>
        <mxCell id="0rOF9EZ3HCnSU4P0p_L--18" value="" style="pointerEvents=1;shadow=0;dashed=0;html=1;strokeColor=none;fillColor=#4495D1;labelPosition=center;verticalLabelPosition=bottom;verticalAlign=top;align=center;outlineConnect=0;shape=mxgraph.veeam.cluster;" vertex="1" parent="1">
          <mxGeometry x="569" y="867.54" width="140.8" height="88.2" as="geometry" />
        </mxCell>
        <mxCell id="0rOF9EZ3HCnSU4P0p_L--32" value="" style="endArrow=none;html=1;rounded=0;exitX=0.983;exitY=0.452;exitDx=0;exitDy=0;exitPerimeter=0;" edge="1" parent="1">
          <mxGeometry width="50" height="50" relative="1" as="geometry">
            <mxPoint x="629.4967999999999" y="815.6486" as="sourcePoint" />
            <mxPoint x="650" y="864" as="targetPoint" />
            <Array as="points">
              <mxPoint x="650" y="816" />
            </Array>
          </mxGeometry>
        </mxCell>
        <mxCell id="0rOF9EZ3HCnSU4P0p_L--26" value="" style="sketch=0;points=[[0.5,0,0],[1,0.5,0],[0.5,1,0],[0,0.5,0],[0.145,0.145,0],[0.8555,0.145,0],[0.855,0.8555,0],[0.145,0.855,0]];verticalLabelPosition=bottom;html=1;verticalAlign=top;aspect=fixed;align=center;pointerEvents=1;shape=mxgraph.cisco19.rect;prIcon=router;fillColor=#FAFAFA;strokeColor=#005073;" vertex="1" parent="1">
          <mxGeometry x="586" y="796" width="43.5" height="43.5" as="geometry" />
        </mxCell>
        <mxCell id="0rOF9EZ3HCnSU4P0p_L--19" value="Indonesia Cloud Server" style="text;html=1;resizable=0;autosize=1;align=center;verticalAlign=middle;points=[];fillColor=none;strokeColor=none;rounded=0;" vertex="1" parent="1">
          <mxGeometry x="565" y="955.74" width="143" height="26" as="geometry" />
        </mxCell>
        <mxCell id="0rOF9EZ3HCnSU4P0p_L--40" value="&lt;font style=&quot;font-size: 10px;&quot;&gt;Router&lt;/font&gt;" style="text;html=1;resizable=0;autosize=1;align=center;verticalAlign=middle;points=[];fillColor=none;strokeColor=none;rounded=0;" vertex="1" parent="1">
          <mxGeometry x="271" y="852.55" width="48" height="26" as="geometry" />
        </mxCell>
        <mxCell id="0rOF9EZ3HCnSU4P0p_L--41" value="&lt;font style=&quot;font-size: 10px;&quot;&gt;PfSense&lt;/font&gt;" style="text;html=1;resizable=0;autosize=1;align=center;verticalAlign=middle;points=[];fillColor=none;strokeColor=none;rounded=0;" vertex="1" parent="1">
          <mxGeometry x="615.4" y="785" width="56" height="26" as="geometry" />
        </mxCell>
        <mxCell id="0rOF9EZ3HCnSU4P0p_L--42" value="&lt;font style=&quot;font-size: 10px;&quot;&gt;ipsec&lt;/font&gt;" style="text;html=1;resizable=0;autosize=1;align=center;verticalAlign=middle;points=[];fillColor=none;strokeColor=none;rounded=0;" vertex="1" parent="1">
          <mxGeometry x="406.5" y="744" width="41" height="26" as="geometry" />
        </mxCell>
      </root>
    </mxGraphModel>
  </diagram>
</mxfile>
